<svg width="18" height="18" viewBox="0 0 18 18" fill="none" xmlns="http://www.w3.org/2000/svg">
<path d="M3.90649 9.74997H12.284L8.62399 13.41C8.33149 13.7025 8.33149 14.1825 8.62399 14.475C8.91649 14.7675 9.38899 14.7675 9.68149 14.475L14.624 9.53247C14.9165 9.23997 14.9165 8.76747 14.624 8.47497L9.68899 3.52497C9.54887 3.38453 9.35863 3.3056 9.16024 3.3056C8.96186 3.3056 8.77162 3.38453 8.63149 3.52497C8.33899 3.81747 8.33899 4.28997 8.63149 4.58247L12.284 8.24997H3.90649C3.49399 8.24997 3.15649 8.58747 3.15649 8.99997C3.15649 9.41247 3.49399 9.74997 3.90649 9.74997Z" fill="white"/>
</svg>
