<svg width="556" height="87" viewBox="0 0 556 87" fill="none" xmlns="http://www.w3.org/2000/svg">
<g filter="url(#filter0_d)">
<path d="M36.4688 78.8281C32.3438 78.8281 28.2344 78.2812 24.1406 77.1875C20.0469 76.0938 16.5312 74.3906 13.5938 72.0781C7.34375 67.2031 4.21875 59.9844 4.21875 50.4219V43.2969L30.2344 39.7344V46.9531C30.2344 51.2969 31.5312 54.0938 34.125 55.3438C35.6875 56.125 37.2812 56.0938 38.9062 55.25C39.7188 54.8125 40.4375 54.1875 41.0625 53.375C42.4375 51.625 43.125 49.3906 43.125 46.6719V2.14062H72.9844V38.3281C72.9844 57.1719 67.2031 69.4375 55.6406 75.125C50.7031 77.5625 44.3125 78.7969 36.4688 78.8281ZM135.609 30.5938C135.609 25.3125 133.078 22.6719 128.016 22.6719C125.828 22.6719 123.391 24.0469 120.703 26.7969C116.672 30.9531 113.859 35.9062 112.266 41.6562C111.766 43.4688 111.516 45.1406 111.516 46.6719C111.516 51.8594 114.141 54.4531 119.391 54.4531C121.484 54.4844 123.875 53.0938 126.562 50.2812C130.469 46.1562 133.234 41.1562 134.859 35.2812C135.359 33.4688 135.609 31.9062 135.609 30.5938ZM122.812 78.8281C111.719 78.8281 102.094 75.2344 93.9375 68.0469C91.3438 65.7656 89.0938 63.1562 87.1875 60.2188C83.125 54 81.0938 47.0469 81.0938 39.3594C81.0938 31.6406 82.9688 24.8125 86.7188 18.875C90.4688 12.9375 95.5 8.3125 101.812 5C108.125 1.6875 114.656 0.03125 121.406 0.03125C128.188 0.03125 134.156 0.9375 139.312 2.75C144.469 4.5625 148.953 7.17188 152.766 10.5781C156.609 13.9531 159.625 18.0938 161.812 23C164 27.9062 165.094 33.4531 165.094 39.6406C165.094 47.3281 163.141 54.1719 159.234 60.1719C155.328 66.1406 150.125 70.75 143.625 74C137.125 77.2188 130.188 78.8281 122.812 78.8281ZM174.422 2.14062C191.391 1.35937 203.578 0.96875 210.984 0.96875C224.766 0.96875 234.656 2.53125 240.656 5.65625C246.031 8.46875 248.719 12.7344 248.719 18.4531C248.719 21.8906 247.812 24.7812 246 27.125C244.219 29.4375 241.484 31.4375 237.797 33.125C242.422 34.6875 245.984 36.9062 248.484 39.7812C251.766 43.5625 253.406 48.75 253.406 55.3438C253.406 69.5625 242.406 77.0781 220.406 77.8906C217.25 78.0156 214.797 78.0781 213.047 78.0781C211.297 78.0781 209.781 78.0625 208.5 78.0312C207.219 78 205.75 77.9531 204.094 77.8906C202.469 77.8594 200.688 77.8125 198.75 77.75C196.844 77.7188 194.906 77.6562 192.938 77.5625C190.969 77.5 189.031 77.4375 187.125 77.375C185.219 77.3125 183.438 77.2344 181.781 77.1406C180.125 77.0781 178.656 77.0312 177.375 77C176.094 76.9375 175.109 76.875 174.422 76.8125V2.14062ZM222.234 47.8906C222.234 45.2656 220.688 43.9531 217.594 43.9531C215.25 43.9219 211.609 45.2812 206.672 48.0312C205.516 48.6562 204.531 49.1875 203.719 49.625V61.4375C204.156 61.2812 204.562 61.125 204.938 60.9688C205.344 60.8125 206.25 60.4688 207.656 59.9375C212.656 58.0625 216.062 56.5156 217.875 55.2969C220.812 53.3281 222.266 50.8594 222.234 47.8906ZM203.719 36.4062C209.031 34.3438 212.562 32.7031 214.312 31.4844C217.938 29.0469 219.75 26.4219 219.75 23.6094C219.75 21.6406 218.719 20.375 216.656 19.8125C216.094 19.6562 215.5 19.5781 214.875 19.5781C214.25 19.5781 213.516 19.6875 212.672 19.9062C211.859 20.125 211.047 20.4062 210.234 20.75C208.984 21.2188 207.594 21.9062 206.062 22.8125C204.562 23.6875 203.781 24.1562 203.719 24.2188V36.4062ZM289.969 78.8281C275.938 78.8281 266.625 77.0938 262.031 73.625V52.1562C262.156 52.1875 262.609 52.3281 263.391 52.5781C264.203 52.8281 265.219 53.1406 266.438 53.5156C269.281 54.3906 272.266 55.2188 275.391 56C278.547 56.75 281.078 57.125 282.984 57.125C286.109 57.125 287.672 56.1719 287.672 54.2656C287.672 52.7969 286.328 51.2344 283.641 49.5781C282.422 48.8281 281.031 48.0469 279.469 47.2344C277.938 46.4219 276.375 45.5156 274.781 44.5156C270.875 42.1094 267.734 39.2969 265.359 36.0781C263.016 32.8594 261.844 28.7969 261.844 23.8906C261.844 13.1719 267.5 5.96875 278.812 2.28125C283.406 0.78125 288.703 0.03125 294.703 0.03125C300.734 0.03125 307.031 0.71875 313.594 2.09375C314.938 2.375 315.828 2.57812 316.266 2.70312V24.2188C307.766 22.4062 301.656 21.5 297.938 21.5C296.5 21.5 295.422 21.75 294.703 22.25C293.984 22.75 293.625 23.3125 293.625 23.9375C293.625 24.5625 293.938 25.2188 294.562 25.9062C295.188 26.5625 296.266 27.2344 297.797 27.9219C299.328 28.5781 301.109 29.3906 303.141 30.3594C305.203 31.2969 307.125 32.3125 308.906 33.4062C316.906 38.3125 320.906 45.0156 320.906 53.5156C320.906 61.5781 318.188 67.8125 312.75 72.2188C307.25 76.5938 299.656 78.7969 289.969 78.8281ZM330.891 2.14062H338.484L379.359 31.2969V2.14062H405.75V77H395.672L357.188 51.2656V77H330.891V2.14062ZM417.328 2.14062H471.281V23.7031H446.484V29.8438H471.188V48.2188H446.484V55.2969H472.922V77H417.328V2.14062ZM480.984 2.14062H551.859V26.4219H531V77H501.844V26.4219H480.984V2.14062Z" fill="url(#paint0_linear)" shape-rendering="crispEdges"/>
<path d="M36.4688 78.8281C32.3438 78.8281 28.2344 78.2812 24.1406 77.1875C20.0469 76.0938 16.5312 74.3906 13.5938 72.0781C7.34375 67.2031 4.21875 59.9844 4.21875 50.4219V43.2969L30.2344 39.7344V46.9531C30.2344 51.2969 31.5312 54.0938 34.125 55.3438C35.6875 56.125 37.2812 56.0938 38.9062 55.25C39.7188 54.8125 40.4375 54.1875 41.0625 53.375C42.4375 51.625 43.125 49.3906 43.125 46.6719V2.14062H72.9844V38.3281C72.9844 57.1719 67.2031 69.4375 55.6406 75.125C50.7031 77.5625 44.3125 78.7969 36.4688 78.8281ZM135.609 30.5938C135.609 25.3125 133.078 22.6719 128.016 22.6719C125.828 22.6719 123.391 24.0469 120.703 26.7969C116.672 30.9531 113.859 35.9062 112.266 41.6562C111.766 43.4688 111.516 45.1406 111.516 46.6719C111.516 51.8594 114.141 54.4531 119.391 54.4531C121.484 54.4844 123.875 53.0938 126.562 50.2812C130.469 46.1562 133.234 41.1562 134.859 35.2812C135.359 33.4688 135.609 31.9062 135.609 30.5938ZM122.812 78.8281C111.719 78.8281 102.094 75.2344 93.9375 68.0469C91.3438 65.7656 89.0938 63.1562 87.1875 60.2188C83.125 54 81.0938 47.0469 81.0938 39.3594C81.0938 31.6406 82.9688 24.8125 86.7188 18.875C90.4688 12.9375 95.5 8.3125 101.812 5C108.125 1.6875 114.656 0.03125 121.406 0.03125C128.188 0.03125 134.156 0.9375 139.312 2.75C144.469 4.5625 148.953 7.17188 152.766 10.5781C156.609 13.9531 159.625 18.0938 161.812 23C164 27.9062 165.094 33.4531 165.094 39.6406C165.094 47.3281 163.141 54.1719 159.234 60.1719C155.328 66.1406 150.125 70.75 143.625 74C137.125 77.2188 130.188 78.8281 122.812 78.8281ZM174.422 2.14062C191.391 1.35937 203.578 0.96875 210.984 0.96875C224.766 0.96875 234.656 2.53125 240.656 5.65625C246.031 8.46875 248.719 12.7344 248.719 18.4531C248.719 21.8906 247.812 24.7812 246 27.125C244.219 29.4375 241.484 31.4375 237.797 33.125C242.422 34.6875 245.984 36.9062 248.484 39.7812C251.766 43.5625 253.406 48.75 253.406 55.3438C253.406 69.5625 242.406 77.0781 220.406 77.8906C217.25 78.0156 214.797 78.0781 213.047 78.0781C211.297 78.0781 209.781 78.0625 208.5 78.0312C207.219 78 205.75 77.9531 204.094 77.8906C202.469 77.8594 200.688 77.8125 198.75 77.75C196.844 77.7188 194.906 77.6562 192.938 77.5625C190.969 77.5 189.031 77.4375 187.125 77.375C185.219 77.3125 183.438 77.2344 181.781 77.1406C180.125 77.0781 178.656 77.0312 177.375 77C176.094 76.9375 175.109 76.875 174.422 76.8125V2.14062ZM222.234 47.8906C222.234 45.2656 220.688 43.9531 217.594 43.9531C215.25 43.9219 211.609 45.2812 206.672 48.0312C205.516 48.6562 204.531 49.1875 203.719 49.625V61.4375C204.156 61.2812 204.562 61.125 204.938 60.9688C205.344 60.8125 206.25 60.4688 207.656 59.9375C212.656 58.0625 216.062 56.5156 217.875 55.2969C220.812 53.3281 222.266 50.8594 222.234 47.8906ZM203.719 36.4062C209.031 34.3438 212.562 32.7031 214.312 31.4844C217.938 29.0469 219.75 26.4219 219.75 23.6094C219.75 21.6406 218.719 20.375 216.656 19.8125C216.094 19.6562 215.5 19.5781 214.875 19.5781C214.25 19.5781 213.516 19.6875 212.672 19.9062C211.859 20.125 211.047 20.4062 210.234 20.75C208.984 21.2188 207.594 21.9062 206.062 22.8125C204.562 23.6875 203.781 24.1562 203.719 24.2188V36.4062ZM289.969 78.8281C275.938 78.8281 266.625 77.0938 262.031 73.625V52.1562C262.156 52.1875 262.609 52.3281 263.391 52.5781C264.203 52.8281 265.219 53.1406 266.438 53.5156C269.281 54.3906 272.266 55.2188 275.391 56C278.547 56.75 281.078 57.125 282.984 57.125C286.109 57.125 287.672 56.1719 287.672 54.2656C287.672 52.7969 286.328 51.2344 283.641 49.5781C282.422 48.8281 281.031 48.0469 279.469 47.2344C277.938 46.4219 276.375 45.5156 274.781 44.5156C270.875 42.1094 267.734 39.2969 265.359 36.0781C263.016 32.8594 261.844 28.7969 261.844 23.8906C261.844 13.1719 267.5 5.96875 278.812 2.28125C283.406 0.78125 288.703 0.03125 294.703 0.03125C300.734 0.03125 307.031 0.71875 313.594 2.09375C314.938 2.375 315.828 2.57812 316.266 2.70312V24.2188C307.766 22.4062 301.656 21.5 297.938 21.5C296.5 21.5 295.422 21.75 294.703 22.25C293.984 22.75 293.625 23.3125 293.625 23.9375C293.625 24.5625 293.938 25.2188 294.562 25.9062C295.188 26.5625 296.266 27.2344 297.797 27.9219C299.328 28.5781 301.109 29.3906 303.141 30.3594C305.203 31.2969 307.125 32.3125 308.906 33.4062C316.906 38.3125 320.906 45.0156 320.906 53.5156C320.906 61.5781 318.188 67.8125 312.75 72.2188C307.25 76.5938 299.656 78.7969 289.969 78.8281ZM330.891 2.14062H338.484L379.359 31.2969V2.14062H405.75V77H395.672L357.188 51.2656V77H330.891V2.14062ZM417.328 2.14062H471.281V23.7031H446.484V29.8438H471.188V48.2188H446.484V55.2969H472.922V77H417.328V2.14062ZM480.984 2.14062H551.859V26.4219H531V77H501.844V26.4219H480.984V2.14062Z" fill="url(#paint1_linear)" shape-rendering="crispEdges"/>
</g>
<defs>
<filter id="filter0_d" x="0.21875" y="0.03125" width="555.641" height="86.7969" filterUnits="userSpaceOnUse" color-interpolation-filters="sRGB">
<feFlood flood-opacity="0" result="BackgroundImageFix"/>
<feColorMatrix in="SourceAlpha" type="matrix" values="0 0 0 0 0 0 0 0 0 0 0 0 0 0 0 0 0 0 127 0" result="hardAlpha"/>
<feOffset dy="4"/>
<feGaussianBlur stdDeviation="2"/>
<feComposite in2="hardAlpha" operator="out"/>
<feColorMatrix type="matrix" values="0 0 0 0 0 0 0 0 0 0 0 0 0 0 0 0 0 0 0.25 0"/>
<feBlend mode="normal" in2="BackgroundImageFix" result="effect1_dropShadow"/>
<feBlend mode="normal" in="SourceGraphic" in2="effect1_dropShadow" result="shape"/>
</filter>
<linearGradient id="paint0_linear" x1="452" y1="44" x2="539" y2="44" gradientUnits="userSpaceOnUse">
<stop stop-color="#FF0101"/>
<stop offset="1" stop-color="#DCD6D6" stop-opacity="0"/>
</linearGradient>
<linearGradient id="paint1_linear" x1="279" y1="44" x2="279" y2="117" gradientUnits="userSpaceOnUse">
<stop stop-color="#FFBABA"/>
<stop offset="1" stop-color="white" stop-opacity="0"/>
</linearGradient>
</defs>
</svg>
