<svg width="600" height="600" viewBox="0 0 600 600" fill="none" xmlns="http://www.w3.org/2000/svg">
<path d="M189.61 163.02V436.97C189.61 443.94 183.96 449.6 176.98 449.6H31.37C24.4 449.6 18.74 443.95 18.74 436.97V163.02C18.74 156.05 24.39 150.39 31.37 150.39H176.98C183.95 150.4 189.61 156.05 189.61 163.02Z" fill="white" stroke="#262424" stroke-width="1.7994" stroke-miterlimit="10" stroke-linecap="round" stroke-linejoin="round"/>
<path d="M189.61 344.88V436.97C189.61 443.94 183.96 449.6 176.98 449.6H31.37C24.4 449.6 18.74 443.95 18.74 436.97V344.88H189.61Z" fill="#88C0C2" stroke="#262424" stroke-width="1.8896" stroke-miterlimit="10" stroke-linecap="round" stroke-linejoin="round"/>
<path d="M135.63 386.72H72.73C69.18 386.72 66.3 383.84 66.3 380.29V379.49C66.3 375.94 69.18 373.06 72.73 373.06H135.63C139.18 373.06 142.06 375.94 142.06 379.49V380.29C142.06 383.84 139.18 386.72 135.63 386.72Z" fill="white" stroke="#262424" stroke-width="1.5924" stroke-miterlimit="10" stroke-linecap="round" stroke-linejoin="round"/>
<path d="M119.65 410.9H88.7C85.15 410.9 82.27 408.02 82.27 404.47V403.67C82.27 400.12 85.15 397.24 88.7 397.24H119.65C123.2 397.24 126.08 400.12 126.08 403.67V404.47C126.08 408.02 123.2 410.9 119.65 410.9Z" fill="white" stroke="#262424" stroke-width="1.5924" stroke-miterlimit="10" stroke-linecap="round" stroke-linejoin="round"/>
<path d="M95.9301 438.26H85.7401C84.5701 438.26 83.6201 437.31 83.6201 436.14V435.88C83.6201 434.71 84.5701 433.76 85.7401 433.76H95.9201C97.0901 433.76 98.0401 434.71 98.0401 435.88V436.14C98.0501 437.31 97.1001 438.26 95.9301 438.26Z" fill="white" stroke="#262424" stroke-width="1.5924" stroke-miterlimit="10" stroke-linecap="round" stroke-linejoin="round"/>
<path d="M108.21 438.25C109.453 438.25 110.46 437.243 110.46 436C110.46 434.757 109.453 433.75 108.21 433.75C106.968 433.75 105.96 434.757 105.96 436C105.96 437.243 106.968 438.25 108.21 438.25Z" fill="white" stroke="#262424" stroke-width="1.5924" stroke-miterlimit="10" stroke-linecap="round" stroke-linejoin="round"/>
<path d="M122.47 438.25C123.713 438.25 124.72 437.243 124.72 436C124.72 434.757 123.713 433.75 122.47 433.75C121.228 433.75 120.22 434.757 120.22 436C120.22 437.243 121.228 438.25 122.47 438.25Z" fill="white" stroke="#262424" stroke-width="1.5924" stroke-miterlimit="10" stroke-linecap="round" stroke-linejoin="round"/>
<path d="M45.4899 175.47C48.8588 175.47 51.5899 172.739 51.5899 169.37C51.5899 166.001 48.8588 163.27 45.4899 163.27C42.121 163.27 39.3899 166.001 39.3899 169.37C39.3899 172.739 42.121 175.47 45.4899 175.47Z" fill="#88C0C2"/>
<path d="M169.46 251.61C173.95 251.61 177.59 247.97 177.59 243.48C177.59 238.99 173.95 235.35 169.46 235.35C164.97 235.35 161.33 238.99 161.33 243.48C161.33 247.97 164.97 251.61 169.46 251.61Z" fill="#88C0C2"/>
<path d="M136.94 185.26C139.486 185.26 141.55 183.196 141.55 180.65C141.55 178.104 139.486 176.04 136.94 176.04C134.394 176.04 132.33 178.104 132.33 180.65C132.33 183.196 134.394 185.26 136.94 185.26Z" fill="#88C0C2"/>
<path d="M101.58 282.82L107.84 309.72C107.84 309.72 109.34 316.37 115.69 316.39C115.75 316.39 115.81 316.39 115.87 316.39C120.95 316.37 124.81 311.79 124.13 306.76C122.74 296.44 119.45 278.03 119.45 278.03L101.58 282.82Z" fill="white" stroke="#262424" stroke-width="1.7994" stroke-miterlimit="10" stroke-linecap="round" stroke-linejoin="round"/>
<path d="M123 285.63L95.1401 293.1C90.0701 273.41 88.4701 251.36 94.8901 245.64C112.49 229.96 120.24 263.98 123 285.63Z" fill="#DE9244"/>
<path d="M95.4502 289.53L119.95 282.82" stroke="#262424" stroke-width="1.7994" stroke-miterlimit="10" stroke-linecap="round" stroke-linejoin="round"/>
<path d="M63.5099 186.86C68.5899 187.67 66.9499 198.22 65.9799 201.67C65.0099 205.12 69.2999 213.36 64.0399 217.64C58.7799 221.92 72.5299 231.19 60.3399 246.72C50.9399 258.69 29.4699 256.18 29.8999 245.45C30.3299 234.71 45.3999 226.35 45.6699 216.52C45.8399 210.27 41.3899 202.3 50.4699 196.97C57.2599 192.98 59.5099 186.21 63.5099 186.86Z" fill="#262424"/>
<path d="M110.83 343.89H29.72L42.38 284.08L44.05 242.49C44.05 242.49 61.85 230.83 76.05 230.83C86.75 230.83 105.11 241.73 105.11 241.73L105.7 248.77C105.7 248.77 110.51 262.06 110.51 267.06C110.51 272.07 101.97 283.55 101.97 283.55C101.97 283.55 108.34 324.48 110.83 343.89Z" fill="#DE9244"/>
<path d="M34.4399 339.62H108.7" stroke="#262424" stroke-width="1.7994" stroke-miterlimit="10" stroke-linecap="round" stroke-linejoin="round"/>
<path d="M105.29 243.82L105.7 248.77C105.7 248.77 110.51 262.06 110.51 267.07C110.51 272.08 101.97 283.57 101.97 283.57C101.97 283.57 102.41 286.42 103.1 290.97" stroke="#262424" stroke-width="1.7994" stroke-miterlimit="10" stroke-linecap="round" stroke-linejoin="round"/>
<path d="M75.2299 227.62C81.2399 228.01 84.6599 232.01 85.0499 235.28C85.4399 238.55 83.0899 241.56 80.8599 242.22C80.8599 242.22 78.6299 236 76.9299 236C75.2299 236 73.9799 243.2 73.9799 243.2C73.9799 243.2 65.9299 243.2 63.7699 236.33C62.2899 231.58 68.2299 227.16 75.2299 227.62Z" fill="white" stroke="#262424" stroke-width="1.7994" stroke-miterlimit="10" stroke-linecap="round" stroke-linejoin="round"/>
<path d="M79.16 231.54C79.16 231.54 78.95 233.6 76.38 234.59C76.38 234.59 72.34 234.78 69.29 231.54L70.01 218.48L72.45 218.99L78.4 220.24L79.03 229.63L79.16 231.54Z" fill="white" stroke="#262424" stroke-width="1.7994" stroke-miterlimit="10" stroke-linecap="round" stroke-linejoin="round"/>
<path d="M79.0301 229.64C71.9001 228.94 71.3101 219.85 71.3101 219.85C71.6901 219.53 72.0701 219.25 72.4601 219L78.4101 220.25L79.0301 229.64Z" fill="#262424"/>
<path d="M114.67 304.23C108.34 304.74 107.84 309.71 107.84 309.71L107.71 321.82C107.71 321.82 104.13 320.55 102.67 323.92C101.21 327.29 101.73 338.46 103.98 338.46C106.23 338.46 106.9 333.67 106.9 333.67C106.9 333.67 107.2 338.77 110.5 338.77C113.8 338.77 118.75 337.72 120.4 335.17C122.05 332.62 121.3 325.87 121.3 325.87C122.12 323.54 124 317.63 124.71 313.34C124.77 313 124.74 312.29 124.66 311.33C123.78 307.71 120.82 303.74 114.67 304.23Z" fill="white"/>
<path d="M107.83 309.72L107.7 321.83C107.7 321.83 104.12 320.56 102.66 323.93C101.2 327.3 101.72 338.47 103.97 338.47C106.22 338.47 106.89 333.68 106.89 333.68C106.89 333.68 107.19 338.78 110.49 338.78C113.79 338.78 118.74 337.73 120.39 335.18C122.04 332.63 121.29 325.88 121.29 325.88C122.11 323.55 123.99 317.64 124.7 313.35C124.76 313.01 124.73 312.3 124.65 311.34C124.51 310.74 124.3 310.13 124.04 309.54" stroke="#262424" stroke-width="1.7994" stroke-miterlimit="10" stroke-linecap="round" stroke-linejoin="round"/>
<path d="M52.5798 290.96C58.7798 270.03 66.6798 235.92 44.0398 242.49C37.2398 244.46 30.5498 266.3 27.2498 286.36C25.5598 296.65 24.7698 306.45 25.3098 312.88C25.6498 316.93 28.7598 320.32 32.8198 320.64C39.2498 321.15 44.9598 315.82 48.3798 306.2C48.3798 306.2 49.8898 300.04 52.5798 290.96Z" fill="white" stroke="#262424" stroke-width="1.7994" stroke-miterlimit="10" stroke-linecap="round" stroke-linejoin="round"/>
<path d="M53.6499 290.42L25.1399 286.03C28.4399 265.97 35.8499 245.14 44.0399 242.49C66.4699 235.24 59.8499 269.5 53.6499 290.42Z" fill="#DE9244" stroke="#DE9244" stroke-width="1.6806" stroke-miterlimit="10" stroke-linecap="round" stroke-linejoin="round"/>
<path d="M48.47 241.55C64.21 240.24 60.21 266.46 54.97 285.77" stroke="#262424" stroke-width="1.7994" stroke-miterlimit="10" stroke-linecap="round" stroke-linejoin="round"/>
<path d="M26.8699 282.89L51.9899 286.62" stroke="#262424" stroke-width="1.7994" stroke-miterlimit="10" stroke-linecap="round" stroke-linejoin="round"/>
<path d="M98.4499 321.2C96.9899 321.23 87.3499 325.21 87.3499 325.21L48.3799 304.76C35.4099 296.34 23.0799 302.27 26.3899 316.8C26.5899 317.28 26.7999 317.71 27.0399 318.03C33.0999 326.11 83.0099 333.33 83.0099 333.33C83.0099 333.33 85.1999 333.73 87.0799 337.21C88.9599 340.69 93.7999 341.51 98.2199 338.89C102.64 336.27 101.95 334.02 101.95 334.02C102.93 334.79 105.2 334.9 105.37 333.02C105.53 331.14 99.8999 321.17 98.4499 321.2Z" fill="white"/>
<path d="M26.3799 316.8C26.5799 317.28 26.7899 317.71 27.0299 318.03C33.0899 326.11 82.9999 333.33 82.9999 333.33C82.9999 333.33 85.1899 333.73 87.0699 337.21C88.9499 340.69 93.7899 341.51 98.2099 338.89C102.63 336.27 101.94 334.02 101.94 334.02C102.92 334.79 105.19 334.9 105.36 333.02C105.52 331.14 99.8999 321.16 98.4499 321.19C96.9899 321.22 87.3499 325.2 87.3499 325.2L48.3799 304.75" fill="white"/>
<path d="M26.3799 316.8C26.5799 317.28 26.7899 317.71 27.0299 318.03C33.0899 326.11 82.9999 333.33 82.9999 333.33C82.9999 333.33 85.1899 333.73 87.0699 337.21C88.9499 340.69 93.7899 341.51 98.2099 338.89C102.63 336.27 101.94 334.02 101.94 334.02C102.92 334.79 105.19 334.9 105.36 333.02C105.52 331.14 99.8999 321.16 98.4499 321.19C96.9899 321.22 87.3499 325.2 87.3499 325.2L48.3799 304.75" stroke="#262424" stroke-width="1.7994" stroke-miterlimit="10" stroke-linecap="round" stroke-linejoin="round"/>
<path d="M86.9399 210.85C86.9399 210.85 89.7599 206.66 92.7899 208.08C95.8199 209.5 94.7999 219.61 87.3399 218.23L86.9399 210.85Z" fill="white" stroke="#262424" stroke-width="1.7994" stroke-miterlimit="10" stroke-linecap="round" stroke-linejoin="round"/>
<path d="M65.92 191.65L64.19 190.83C63.64 190.57 62.99 190.62 62.49 190.98C61.92 191.39 61.19 192.02 60.76 192.84C60.27 193.77 60.38 194.81 60.53 195.48C60.63 195.91 60.9 196.28 61.28 196.52L63.13 197.68C64.03 198.24 65.22 197.84 65.6 196.85L66.77 193.77C67.09 192.95 66.72 192.03 65.92 191.65Z" fill="white"/>
<path d="M88.8299 212.52C88.4899 218.77 85.7099 225.98 78.1499 225.78C72.5899 225.63 66.4399 218.94 65.9799 210.5C65.5099 202.06 66.9799 194.83 77.1399 195.34C78.0499 195.39 79.5599 195.59 80.3699 195.77C86.2599 197.07 88.5099 197.6 88.9499 209.19C88.9799 210.2 88.8999 211.34 88.8299 212.52Z" fill="white"/>
<path d="M88.8299 212.52C88.4899 218.77 85.7099 225.98 78.1499 225.78C72.5899 225.63 66.4399 218.94 65.9799 210.5C65.5099 202.06 66.9799 194.83 77.1399 195.34C78.0499 195.39 79.5599 195.59 80.3699 195.77C86.2599 197.07 88.5099 197.6 88.9499 209.19C88.9799 210.2 88.8999 211.34 88.8299 212.52Z" stroke="#262424" stroke-width="1.7994" stroke-miterlimit="10" stroke-linecap="round" stroke-linejoin="round"/>
<path d="M65.73 190.29L64.02 189.48C63.47 189.22 62.83 189.27 62.34 189.63C61.77 190.04 61.06 190.67 60.63 191.48C60.15 192.4 60.25 193.43 60.4 194.1C60.5 194.53 60.77 194.9 61.14 195.13L62.98 196.28C63.87 196.84 65.05 196.44 65.43 195.45L66.58 192.4C66.88 191.58 66.51 190.67 65.73 190.29Z" fill="white"/>
<path d="M68.43 209.78C70.95 208.73 71.92 206.79 72.22 204.96C72.33 204.24 72.4 203.26 72.61 202.37C76.87 206.83 84.92 209.54 88.42 210.56C89.55 210.89 90.79 210.51 91.45 209.54C95.54 203.5 90.66 191.92 82.82 192.15C73.92 185.99 63.52 190.47 62.04 197.99C60.4 206.31 65.93 210.83 68.43 209.78Z" fill="#262424"/>
<path d="M68.57 210.85C68.57 210.85 64.47 206.61 60.15 207.99C55.83 209.37 58.34 219.43 69 218.16L68.57 210.85Z" fill="white"/>
<path d="M68.57 210.85C68.57 210.85 64.47 206.61 60.15 207.99C55.83 209.37 58.34 219.43 69 218.16" stroke="#262424" stroke-width="1.7994" stroke-miterlimit="10" stroke-linecap="round" stroke-linejoin="round"/>
<path d="M164.79 344.16H78.1699C76.3799 344.16 74.9399 342.71 74.9399 340.93V337.64C74.9399 335.85 76.3899 334.41 78.1699 334.41H164.79C166.58 334.41 168.02 335.86 168.02 337.64V340.93C168.03 342.71 166.58 344.16 164.79 344.16Z" fill="#88C0C2"/>
<path d="M108.58 344.16H78.1699C76.3799 344.16 74.9399 342.71 74.9399 340.93V337.64C74.9399 335.85 76.3899 334.41 78.1699 334.41H108.58C110.37 334.41 111.81 335.86 111.81 337.64V340.93C111.81 342.71 110.36 344.16 108.58 344.16Z" fill="#88C0C2"/>
<path d="M111.03 335.65C111.52 336.24 111.81 337 111.81 337.83V340.72C111.81 341.39 111.62 342.02 111.28 342.55" stroke="#262424" stroke-width="1.6754" stroke-miterlimit="10" stroke-linecap="round" stroke-linejoin="round"/>
<path d="M160.87 334.4H114.52C112.04 334.4 110.35 331.89 111.29 329.59L131.79 279.26C132.86 276.64 135.4 274.93 138.22 274.93H184.57C187.05 274.93 188.74 277.44 187.8 279.74L167.3 330.07C166.24 332.69 163.7 334.4 160.87 334.4Z" fill="#88C0C2"/>
<path d="M165.84 334.4H119.49C117.01 334.4 115.32 331.89 116.26 329.59L136.76 279.26C137.83 276.64 140.37 274.93 143.19 274.93H189.54C192.02 274.93 193.71 277.44 192.77 279.74L172.27 330.07C171.21 332.69 168.67 334.4 165.84 334.4Z" fill="#88C0C2"/>
<path d="M164.59 334.4H119.49C117.01 334.4 115.32 331.89 116.26 329.59L136.76 279.26" stroke="#262424" stroke-width="1.6754" stroke-miterlimit="10" stroke-linecap="round" stroke-linejoin="round"/>
<path d="M385.52 163.02V436.97C385.52 443.94 379.87 449.6 372.89 449.6H227.29C220.32 449.6 214.66 443.95 214.66 436.97V163.02C214.66 156.05 220.31 150.39 227.29 150.39H372.9C379.87 150.4 385.52 156.05 385.52 163.02Z" fill="white" stroke="#262424" stroke-width="1.7994" stroke-miterlimit="10" stroke-linecap="round" stroke-linejoin="round"/>
<path d="M385.52 344.88V436.97C385.52 443.94 379.87 449.6 372.89 449.6H227.29C220.32 449.6 214.66 443.95 214.66 436.97V344.88H385.52Z" fill="#88C0C2" stroke="#262424" stroke-width="1.8896" stroke-miterlimit="10" stroke-linecap="round" stroke-linejoin="round"/>
<path d="M331.54 386.72H268.64C265.09 386.72 262.21 383.84 262.21 380.29V379.49C262.21 375.94 265.09 373.06 268.64 373.06H331.54C335.09 373.06 337.97 375.94 337.97 379.49V380.29C337.97 383.84 335.09 386.72 331.54 386.72Z" fill="white" stroke="#262424" stroke-width="1.5924" stroke-miterlimit="10" stroke-linecap="round" stroke-linejoin="round"/>
<path d="M315.57 410.9H284.62C281.07 410.9 278.19 408.02 278.19 404.47V403.67C278.19 400.12 281.07 397.24 284.62 397.24H315.57C319.12 397.24 322 400.12 322 403.67V404.47C322 408.02 319.12 410.9 315.57 410.9Z" fill="white" stroke="#262424" stroke-width="1.5924" stroke-miterlimit="10" stroke-linecap="round" stroke-linejoin="round"/>
<path d="M291.85 438.26H281.67C280.5 438.26 279.55 437.31 279.55 436.14V435.88C279.55 434.71 280.5 433.76 281.67 433.76H291.85C293.02 433.76 293.97 434.71 293.97 435.88V436.14C293.97 437.31 293.02 438.26 291.85 438.26Z" fill="white" stroke="#262424" stroke-width="1.5924" stroke-miterlimit="10" stroke-linecap="round" stroke-linejoin="round"/>
<path d="M304.13 438.25C305.373 438.25 306.38 437.243 306.38 436C306.38 434.757 305.373 433.75 304.13 433.75C302.887 433.75 301.88 434.757 301.88 436C301.88 437.243 302.887 438.25 304.13 438.25Z" fill="white" stroke="#262424" stroke-width="1.5924" stroke-miterlimit="10" stroke-linecap="round" stroke-linejoin="round"/>
<path d="M318.39 438.25C319.633 438.25 320.64 437.243 320.64 436C320.64 434.757 319.633 433.75 318.39 433.75C317.147 433.75 316.14 434.757 316.14 436C316.14 437.243 317.147 438.25 318.39 438.25Z" fill="white" stroke="#262424" stroke-width="1.5924" stroke-miterlimit="10" stroke-linecap="round" stroke-linejoin="round"/>
<path d="M250.14 188.78C254.63 188.78 258.27 185.14 258.27 180.65C258.27 176.16 254.63 172.52 250.14 172.52C245.65 172.52 242.01 176.16 242.01 180.65C242.01 185.14 245.65 188.78 250.14 188.78Z" fill="#88C0C2"/>
<path d="M278.55 216.69C281.151 216.69 283.26 214.581 283.26 211.98C283.26 209.379 281.151 207.27 278.55 207.27C275.949 207.27 273.84 209.379 273.84 211.98C273.84 214.581 275.949 216.69 278.55 216.69Z" fill="#88C0C2"/>
<path d="M281.11 276.86L264.61 300.71C264.61 300.71 260.58 306.62 254.36 304.19C254.3 304.17 254.24 304.14 254.19 304.12C249.24 302.13 247.23 296.18 249.84 291.52C255.18 281.97 265.51 265.27 265.51 265.27L281.11 276.86Z" fill="white" stroke="#262424" stroke-width="1.8896" stroke-miterlimit="10" stroke-linecap="round" stroke-linejoin="round"/>
<path d="M259.1 271.33L283.42 289.38C295.97 272.11 306.06 251.19 301.99 243.13C290.86 221.02 270.16 251.25 259.1 271.33Z" fill="#DE9244"/>
<path d="M284.49 285.78L263.17 269.76" stroke="#262424" stroke-width="1.8896" stroke-miterlimit="10" stroke-linecap="round" stroke-linejoin="round"/>
<path d="M330.53 178.99C325.2 179.85 326.92 190.92 327.93 194.54C328.94 198.16 324.44 206.81 329.97 211.31C335.49 215.81 321.05 225.54 333.85 241.85C343.72 254.42 366.26 251.79 365.81 240.51C365.36 229.23 349.53 220.45 349.25 210.13C349.07 203.56 353.74 195.2 344.21 189.6C337.1 185.42 334.74 178.31 330.53 178.99Z" fill="#262424"/>
<path d="M280.84 343.89H366.02L352.73 281.08L350.98 237.41C350.98 237.41 332.28 225.17 317.37 225.17C306.14 225.17 286.85 236.62 286.85 236.62L286.23 244.01C286.23 244.01 281.18 257.96 281.18 263.22C281.18 268.48 290.15 280.54 290.15 280.54C290.15 280.54 283.46 323.51 280.84 343.89Z" fill="#DE9244"/>
<path d="M285.47 339.4H363.44" stroke="#262424" stroke-width="1.8896" stroke-miterlimit="10" stroke-linecap="round" stroke-linejoin="round"/>
<path d="M286.66 238.81L286.22 244.01C286.22 244.01 281.17 257.96 281.17 263.22C281.17 268.48 290.14 280.54 290.14 280.54C290.14 280.54 289.68 283.54 288.95 288.31" stroke="#262424" stroke-width="1.8896" stroke-miterlimit="10" stroke-linecap="round" stroke-linejoin="round"/>
<path d="M318.22 221.79C311.91 222.2 308.32 226.4 307.91 229.83C307.5 233.26 309.97 236.43 312.31 237.12C312.31 237.12 314.65 230.59 316.43 230.59C318.21 230.59 319.52 238.15 319.52 238.15C319.52 238.15 327.97 238.15 330.24 230.93C331.81 225.96 325.58 221.31 318.22 221.79Z" fill="white" stroke="#262424" stroke-width="1.8896" stroke-miterlimit="10" stroke-linecap="round" stroke-linejoin="round"/>
<path d="M314.1 225.91C314.1 225.91 314.32 228.08 317.02 229.11C317.02 229.11 321.27 229.31 324.46 225.91L323.71 212.19L321.14 212.73L314.89 214.04L314.23 223.91L314.1 225.91Z" fill="white" stroke="#262424" stroke-width="1.8896" stroke-miterlimit="10" stroke-linecap="round" stroke-linejoin="round"/>
<path d="M314.23 223.91C321.71 223.17 322.34 213.63 322.34 213.63C321.94 213.29 321.54 212.99 321.14 212.73L314.89 214.04L314.23 223.91Z" fill="#262424"/>
<path d="M263.64 286.62C263.64 286.62 268.48 289.81 265.6 296.57C263.26 302.07 258.93 303.61 255.12 303.36C254.87 303.34 254.63 303.32 254.39 303.29C254.14 303.25 253.9 303.22 253.66 303.17C253.42 303.13 253.18 303.07 252.94 303.01C251.91 302.58 251.17 302.22 250.86 301.98C248.38 300.12 244.38 295.62 241.21 291.94C238.68 288.99 238.59 284.67 240.99 281.62C243.49 278.45 247.93 277.59 251.43 279.6L263.64 286.62Z" fill="white"/>
<path d="M255.13 303.36C254.88 303.34 254.64 303.32 254.4 303.29C254.15 303.25 253.91 303.22 253.67 303.17C253.43 303.13 253.19 303.07 252.95 303.01C251.92 302.58 251.18 302.22 250.87 301.98C248.39 300.12 244.39 295.62 241.22 291.94C238.69 288.99 238.6 284.67 241 281.62C243.5 278.45 247.94 277.59 251.44 279.6L263.65 286.62" fill="white"/>
<path d="M255.13 303.36C254.88 303.34 254.64 303.32 254.4 303.29C254.15 303.25 253.91 303.22 253.67 303.17C253.43 303.13 253.19 303.07 252.95 303.01C251.92 302.58 251.18 302.22 250.87 301.98C248.39 300.12 244.39 295.62 241.22 291.94C238.69 288.99 238.6 284.67 241 281.62C243.5 278.45 247.94 277.59 251.44 279.6L263.65 286.62" stroke="#262424" stroke-width="1.8896" stroke-miterlimit="10" stroke-linecap="round" stroke-linejoin="round"/>
<path d="M342.01 288.31C335.49 266.34 327.21 230.51 350.98 237.41C358.12 239.48 365.14 262.41 368.61 283.47C370.38 294.27 371.22 304.57 370.65 311.32C370.29 315.58 367.03 319.13 362.77 319.47C356.01 320.01 350.02 314.41 346.43 304.31C346.42 304.31 344.84 297.84 342.01 288.31Z" fill="white" stroke="#262424" stroke-width="1.8896" stroke-miterlimit="10" stroke-linecap="round" stroke-linejoin="round"/>
<path d="M340.89 287.75L370.82 283.14C367.36 262.08 359.57 240.2 350.97 237.42C327.43 229.8 334.37 265.77 340.89 287.75Z" fill="#DE9244" stroke="#DE9244" stroke-width="1.7648" stroke-miterlimit="10" stroke-linecap="round" stroke-linejoin="round"/>
<path d="M346.33 236.42C329.81 235.05 334.01 262.58 339.5 282.85" stroke="#262424" stroke-width="1.8896" stroke-miterlimit="10" stroke-linecap="round" stroke-linejoin="round"/>
<path d="M369.01 279.84L342.63 283.75" stroke="#262424" stroke-width="1.8896" stroke-miterlimit="10" stroke-linecap="round" stroke-linejoin="round"/>
<path d="M305.93 204.19C305.93 204.19 302.97 199.79 299.78 201.29C296.6 202.79 297.67 213.39 305.5 211.95L305.93 204.19Z" fill="white" stroke="#262424" stroke-width="1.8896" stroke-miterlimit="10" stroke-linecap="round" stroke-linejoin="round"/>
<path d="M328 184.03L329.81 183.17C330.39 182.89 331.07 182.95 331.59 183.32C332.19 183.75 332.95 184.42 333.4 185.28C333.91 186.25 333.8 187.35 333.64 188.06C333.54 188.52 333.25 188.9 332.85 189.15L330.9 190.36C329.95 190.95 328.7 190.53 328.31 189.48L327.09 186.25C326.78 185.39 327.17 184.42 328 184.03Z" fill="white"/>
<path d="M303.94 205.93C304.3 212.49 307.22 220.07 315.16 219.85C321 219.69 327.45 212.67 327.94 203.8C328.43 194.94 326.89 187.35 316.22 187.88C315.27 187.93 313.68 188.14 312.83 188.33C306.64 189.7 304.28 190.25 303.82 202.42C303.78 203.5 303.87 204.7 303.94 205.93Z" fill="white"/>
<path d="M303.94 205.93C304.3 212.49 307.22 220.07 315.16 219.85C321 219.69 327.45 212.67 327.94 203.8C328.43 194.94 326.89 187.35 316.22 187.88C315.27 187.93 313.68 188.14 312.83 188.33C306.64 189.7 304.28 190.25 303.82 202.42C303.78 203.5 303.87 204.7 303.94 205.93Z" stroke="#262424" stroke-width="1.8896" stroke-miterlimit="10" stroke-linecap="round" stroke-linejoin="round"/>
<path d="M328.2 182.6L330 181.75C330.58 181.48 331.25 181.53 331.77 181.9C332.37 182.33 333.12 182.99 333.57 183.84C334.08 184.8 333.97 185.89 333.81 186.59C333.71 187.04 333.42 187.43 333.03 187.67L331.1 188.87C330.16 189.46 328.92 189.04 328.53 188L327.32 184.8C326.99 183.95 327.38 182.99 328.2 182.6Z" fill="white"/>
<path d="M325.36 203.06C322.72 201.95 321.69 199.92 321.38 197.99C321.27 197.23 321.19 196.2 320.97 195.28C316.5 199.97 308.05 202.81 304.37 203.88C303.19 204.22 301.88 203.82 301.19 202.81C296.89 196.47 302.02 184.31 310.25 184.54C319.6 178.07 330.52 182.77 332.07 190.67C333.8 199.42 328 204.16 325.36 203.06Z" fill="#262424"/>
<path d="M325.21 204.19C325.21 204.19 329.52 199.74 334.05 201.19C338.58 202.64 335.95 213.2 324.76 211.87L325.21 204.19Z" fill="white"/>
<path d="M325.21 204.19C325.21 204.19 329.52 199.74 334.05 201.19C338.58 202.64 335.95 213.2 324.76 211.87" stroke="#262424" stroke-width="1.8896" stroke-miterlimit="10" stroke-linecap="round" stroke-linejoin="round"/>
<path d="M320.43 337.15L235.86 308.19C233.84 307.5 232.76 305.3 233.46 303.28L253.04 246.12C253.73 244.1 255.93 243.02 257.95 243.72L342.52 272.68C344.54 273.37 345.62 275.57 344.92 277.59L325.34 334.75C324.64 336.77 322.45 337.84 320.43 337.15Z" fill="#88C0C2" stroke="#88C0C2" stroke-width="1.8896" stroke-miterlimit="10" stroke-linecap="round" stroke-linejoin="round"/>
<path d="M342.648 284.234L250.763 252.767L244.879 269.948L336.764 301.415L342.648 284.234Z" fill="white" stroke="#262424" stroke-width="1.8896" stroke-miterlimit="10" stroke-linecap="round" stroke-linejoin="round"/>
<path d="M318.97 318L306.22 313.63C305.21 313.28 304.67 312.19 305.02 311.18L305.27 310.46C305.62 309.45 306.71 308.91 307.72 309.26L320.47 313.63C321.48 313.98 322.02 315.07 321.67 316.08L321.42 316.8C321.07 317.8 319.97 318.34 318.97 318Z" fill="white" stroke="#262424" stroke-width="1.8896" stroke-miterlimit="10" stroke-linecap="round" stroke-linejoin="round"/>
<path d="M316.17 326.17L309.21 323.79C308.2 323.44 307.66 322.35 308.01 321.34L308.26 320.62C308.61 319.61 309.7 319.07 310.71 319.42L317.67 321.8C318.68 322.15 319.22 323.24 318.87 324.25L318.62 324.97C318.27 325.98 317.18 326.51 316.17 326.17Z" fill="white" stroke="#262424" stroke-width="1.8896" stroke-miterlimit="10" stroke-linecap="round" stroke-linejoin="round"/>
<path d="M245.22 265.14C237.79 261.5 234.25 269.35 241.67 272.81C249.08 276.28 258.97 271.87 245.22 265.14Z" fill="white" stroke="#262424" stroke-width="1.8896" stroke-miterlimit="10" stroke-linecap="round" stroke-linejoin="round"/>
<path d="M241.82 270.76C231.83 268.99 229.4 279.69 230.06 285.4C230.72 291.11 240.11 293.79 244.77 288.82C249.42 283.84 252.71 272.69 241.82 270.76Z" fill="white" stroke="#262424" stroke-width="1.8896" stroke-miterlimit="10" stroke-linecap="round" stroke-linejoin="round"/>
<path d="M369.22 304.85C367.86 296.48 361.19 296.35 361.19 296.35L345.07 297.48C345.07 297.48 346.38 292.58 341.73 291C337.09 289.42 322.3 291.32 322.54 294.31C322.78 297.3 329.22 297.68 329.22 297.68C329.22 297.68 322.47 298.63 322.83 303.02C323.19 307.41 325.12 313.87 328.68 315.79C332.25 317.71 341.14 315.98 341.14 315.98C344.33 316.83 352.39 318.69 358.16 319.17C358.62 319.21 359.56 319.1 360.83 318.89C365.58 317.34 370.54 312.98 369.22 304.85Z" fill="white"/>
<path d="M355.18 296.77L345.07 297.48C345.07 297.48 346.38 292.58 341.73 291C337.09 289.42 322.3 291.32 322.54 294.31C322.78 297.3 329.22 297.68 329.22 297.68C329.22 297.68 322.47 298.63 322.83 303.02C323.19 307.41 325.12 313.87 328.68 315.79C332.25 317.71 341.14 315.98 341.14 315.98C344.33 316.83 352.39 318.69 358.16 319.17C358.52 319.2 359.16 319.14 360.02 319.02" fill="white"/>
<path d="M355.18 296.77L345.07 297.48C345.07 297.48 346.38 292.58 341.73 291C337.09 289.42 322.3 291.32 322.54 294.31C322.78 297.3 329.22 297.68 329.22 297.68C329.22 297.68 322.47 298.63 322.83 303.02C323.19 307.41 325.12 313.87 328.68 315.79C332.25 317.71 341.14 315.98 341.14 315.98C344.33 316.83 352.39 318.69 358.16 319.17C358.52 319.2 359.16 319.14 360.02 319.02" stroke="#262424" stroke-width="1.8896" stroke-miterlimit="10" stroke-linecap="round" stroke-linejoin="round"/>
<path d="M329.23 297.69C329.23 297.69 334.79 295.88 340.81 296.8L329.23 297.69Z" fill="white"/>
<path d="M329.23 297.69C329.23 297.69 334.79 295.88 340.81 296.8" stroke="#262424" stroke-width="1.8896" stroke-miterlimit="10" stroke-linecap="round" stroke-linejoin="round"/>
<path d="M581.44 163.02V436.97C581.44 443.94 575.79 449.6 568.81 449.6H423.2C416.23 449.6 410.57 443.95 410.57 436.97V163.02C410.57 156.05 416.22 150.39 423.2 150.39H568.81C575.79 150.4 581.44 156.05 581.44 163.02Z" fill="white" stroke="#262424" stroke-width="1.7994" stroke-miterlimit="10" stroke-linecap="round" stroke-linejoin="round"/>
<path d="M581.44 344.88V436.97C581.44 443.94 575.79 449.6 568.81 449.6H423.2C416.23 449.6 410.57 443.95 410.57 436.97V344.88H581.44Z" fill="#88C0C2" stroke="#262424" stroke-width="1.8896" stroke-miterlimit="10" stroke-linecap="round" stroke-linejoin="round"/>
<path d="M527.46 386.72H464.56C461.01 386.72 458.13 383.84 458.13 380.29V379.49C458.13 375.94 461.01 373.06 464.56 373.06H527.46C531.01 373.06 533.89 375.94 533.89 379.49V380.29C533.89 383.84 531.01 386.72 527.46 386.72Z" fill="white" stroke="#262424" stroke-width="1.5924" stroke-miterlimit="10" stroke-linecap="round" stroke-linejoin="round"/>
<path d="M511.48 410.9H480.53C476.98 410.9 474.1 408.02 474.1 404.47V403.67C474.1 400.12 476.98 397.24 480.53 397.24H511.48C515.03 397.24 517.91 400.12 517.91 403.67V404.47C517.91 408.02 515.03 410.9 511.48 410.9Z" fill="white" stroke="#262424" stroke-width="1.5924" stroke-miterlimit="10" stroke-linecap="round" stroke-linejoin="round"/>
<path d="M487.76 438.26H477.58C476.41 438.26 475.46 437.31 475.46 436.14V435.88C475.46 434.71 476.41 433.76 477.58 433.76H487.76C488.93 433.76 489.88 434.71 489.88 435.88V436.14C489.89 437.31 488.94 438.26 487.76 438.26Z" fill="white" stroke="#262424" stroke-width="1.5924" stroke-miterlimit="10" stroke-linecap="round" stroke-linejoin="round"/>
<path d="M500.04 438.25C501.283 438.25 502.29 437.243 502.29 436C502.29 434.757 501.283 433.75 500.04 433.75C498.797 433.75 497.79 434.757 497.79 436C497.79 437.243 498.797 438.25 500.04 438.25Z" fill="white" stroke="#262424" stroke-width="1.5924" stroke-miterlimit="10" stroke-linecap="round" stroke-linejoin="round"/>
<path d="M514.3 438.25C515.543 438.25 516.55 437.243 516.55 436C516.55 434.757 515.543 433.75 514.3 433.75C513.057 433.75 512.05 434.757 512.05 436C512.05 437.243 513.057 438.25 514.3 438.25Z" fill="white" stroke="#262424" stroke-width="1.5924" stroke-miterlimit="10" stroke-linecap="round" stroke-linejoin="round"/>
<path d="M467.81 324.07L493.75 309.88L499.21 306.89C501.63 305.57 503.64 303.62 505.04 301.25L507.61 296.9L536.04 245.42C536.04 245.42 517.7 218.03 503.51 242.24L486.1 287.85L459.42 311.3C459.43 311.31 457.74 318.71 467.81 324.07Z" fill="#88C0C2"/>
<path d="M465.39 309.5C465.39 309.5 466.5 315 471.39 318.59" stroke="#262424" stroke-width="1.6086" stroke-miterlimit="10" stroke-linecap="round" stroke-linejoin="round"/>
<path d="M466.82 321.04C467.56 321.04 468.16 320.44 468.16 319.7C468.16 318.96 467.56 318.36 466.82 318.36C466.08 318.36 465.48 318.96 465.48 319.7C465.48 320.44 466.08 321.04 466.82 321.04Z" fill="white" stroke="#262424" stroke-width="1.6086" stroke-miterlimit="10" stroke-linecap="round" stroke-linejoin="round"/>
<path d="M493.75 309.88L499.21 306.89C501.63 305.57 503.64 303.62 505.04 301.25L507.61 296.9C507.18 296.41 506.67 295.98 506.1 295.61C502.18 293.08 496.68 294.63 493.81 299.07C491.51 302.65 491.59 307 493.75 309.88Z" fill="white"/>
<path d="M574.2 242.98C574.2 242.98 554.89 229.12 514.63 232.58C514.63 232.58 503.24 242.32 505.88 271.19C508.52 300.07 509.18 344.06 509.18 344.06H586.08C586.08 344.06 586.58 299.58 574.2 242.98Z" fill="#88C0C2"/>
<path d="M583 339.73H514.58" stroke="#262424" stroke-width="1.6086" stroke-miterlimit="10" stroke-linecap="round" stroke-linejoin="round"/>
<path d="M512.97 234.45C510.55 237.63 506.26 245.13 505.58 258.99L505.49 262.59V263.82C505.49 265.92 505.59 268.02 505.78 270.11L505.98 272.26L506.63 280.48" stroke="#262424" stroke-width="1.6086" stroke-miterlimit="10" stroke-linecap="round" stroke-linejoin="round"/>
<path d="M553.19 240.24C550.55 246.38 545.6 248.86 542.49 249.83C541.69 245.45 539.5 239.95 539.5 239.95C537.06 243.31 535.77 247.75 535.45 249.78C527.55 247.61 526.65 240.01 526.65 240.01C527.62 232.4 534.16 226.66 539.78 226.85C552.2 227.28 553.19 240.24 553.19 240.24Z" fill="white" stroke="#262424" stroke-width="1.6086" stroke-miterlimit="10" stroke-linecap="round" stroke-linejoin="round"/>
<path d="M547.05 211.51L546.85 219.15L546.51 232.21C542.12 235.28 537.84 235.61 533.72 232.51L534.32 226.44L535.23 217.25L547.05 211.51Z" fill="white" stroke="#262424" stroke-width="1.6086" stroke-miterlimit="10" stroke-linecap="round" stroke-linejoin="round"/>
<path d="M524.58 213.75C525.15 220.04 526.9 227.57 534.44 226.48C543.41 225.18 549.27 218.9 549.44 210.38C549.61 201.86 545.73 197.01 535.51 197.88C534.6 197.96 533.74 198.11 532.93 198.31C527.04 199.83 524.04 204.67 524.34 210.39C524.4 211.42 524.47 212.56 524.58 213.75Z" fill="white"/>
<path d="M532.93 198.31C527.04 199.83 524.04 204.67 524.34 210.39C524.4 211.42 524.46 212.57 524.57 213.75C525.14 220.04 526.89 227.57 534.43 226.48C538.06 225.95 541.17 224.62 543.61 222.65" stroke="#262424" stroke-width="1.6086" stroke-miterlimit="10" stroke-linecap="round" stroke-linejoin="round"/>
<path d="M554.5 205.6C554.42 207.24 553.76 209.33 552.09 212C552.09 212 550.78 213.89 549.16 215.47L544.64 215.7L543.71 212.49C543.71 212.49 540.84 212.33 540.27 210.39C540.27 210.39 540.26 210.35 540.24 210.25C540.13 209.79 539.8 208.16 539.83 205.59C539.84 204.66 539.88 203.58 540.01 202.4C540.01 202.4 534.16 204.92 530.29 205.59C529.95 205.65 529.63 205.7 529.32 205.73C528.78 205.78 528.19 205.73 527.6 205.59C526.72 205.4 525.82 205.03 524.95 204.58C524.7 204.45 524.43 204.29 524.19 204.1C524.66 199.26 527.38 195.08 531.27 192.61C533.29 192.22 538.5 191.41 544.4 192.37C553.63 193.88 551.26 200.22 551.26 200.22C551.26 200.22 554.75 201.4 554.5 205.6Z" fill="#262424"/>
<path d="M553.86 205.42H523.84C523.84 204.93 523.86 204.45 523.9 203.97C524.36 199.24 527.01 195.17 530.82 192.75C533.13 191.27 535.89 190.42 538.85 190.42C547.14 190.42 553.86 197.14 553.86 205.42Z" fill="#DE9244" stroke="#DE9244" stroke-width="1.5707" stroke-miterlimit="10" stroke-linecap="round" stroke-linejoin="round"/>
<path d="M535.39 205.42H521.19V196.62H527.25C531.74 196.62 535.39 200.26 535.39 204.76V205.42Z" fill="white" stroke="#262424" stroke-width="1.5707" stroke-miterlimit="10" stroke-linecap="round" stroke-linejoin="round"/>
<path d="M528.31 205.42H527.61C527.61 201.87 524.74 199 521.19 199C517.64 199 514.75 201.87 514.75 205.42H514.06C513.09 205.42 512.38 204.52 512.58 203.57C513.43 199.6 516.95 196.62 521.18 196.62C525.4 196.62 528.93 199.6 529.78 203.57C530 204.52 529.28 205.42 528.31 205.42Z" fill="white" stroke="#262424" stroke-width="1.5707" stroke-miterlimit="10" stroke-linecap="round" stroke-linejoin="round"/>
<path d="M527.61 205.42H514.75C514.75 201.87 517.63 199 521.19 199C524.75 199 527.61 201.87 527.61 205.42Z" fill="white" stroke="#262424" stroke-width="1.5707" stroke-miterlimit="10" stroke-linecap="round" stroke-linejoin="round"/>
<path d="M545.62 215.23C545.27 211.66 547.81 208.38 551.37 208.01C552.1 207.93 552.85 207.98 553.62 208.19C558.02 209.43 556.76 219.69 545.97 218.79L545.62 215.23Z" fill="white"/>
<path d="M545.62 215.23C545.27 211.66 547.81 208.38 551.37 208.01C552.1 207.93 552.85 207.98 553.62 208.19C558.02 209.43 556.76 219.69 545.97 218.79" stroke="#262424" stroke-width="1.6086" stroke-miterlimit="10" stroke-linecap="round" stroke-linejoin="round"/>
<path d="M495.65 215.39C498.251 215.39 500.36 213.281 500.36 210.68C500.36 208.079 498.251 205.97 495.65 205.97C493.049 205.97 490.94 208.079 490.94 210.68C490.94 213.281 493.049 215.39 495.65 215.39Z" fill="#88C0C2"/>
<path d="M444.06 185.09C447.456 185.09 450.21 182.336 450.21 178.94C450.21 175.543 447.456 172.79 444.06 172.79C440.663 172.79 437.91 175.543 437.91 178.94C437.91 182.336 440.663 185.09 444.06 185.09Z" fill="#88C0C2"/>
<path d="M539.92 178.94C544.41 178.94 548.05 175.3 548.05 170.81C548.05 166.32 544.41 162.68 539.92 162.68C535.43 162.68 531.79 166.32 531.79 170.81C531.79 175.3 535.43 178.94 539.92 178.94Z" fill="#88C0C2"/>
<path d="M473.17 282.6L484.26 299.62C487.38 304.41 493.71 305.92 498.66 303.06C503.97 299.98 505.64 293.09 502.31 287.93L490.57 269.7L473.17 282.6Z" fill="white" stroke="#262424" stroke-width="1.6754" stroke-miterlimit="10" stroke-linecap="round" stroke-linejoin="round"/>
<path d="M499.32 279.56L477.76 295.56C466.63 280.25 457.69 261.7 461.29 254.55C471.17 234.95 489.52 261.75 499.32 279.56Z" fill="#DE9244"/>
<path d="M476.81 292.36L495.72 278.16" stroke="#262424" stroke-width="1.6754" stroke-miterlimit="10" stroke-linecap="round" stroke-linejoin="round"/>
<path d="M435.99 197.68C440.72 198.44 439.2 208.26 438.29 211.47C437.39 214.68 441.38 222.35 436.48 226.34C431.58 230.33 444.39 238.95 433.04 253.42C424.29 264.57 404.3 262.23 404.7 252.23C405.1 242.23 419.13 234.45 419.38 225.3C419.54 219.48 415.4 212.06 423.85 207.09C430.17 203.38 432.26 197.08 435.99 197.68Z" fill="#262424"/>
<path d="M480.05 343.89H404.52L416.31 288.2L417.86 249.48C417.86 249.48 434.44 238.63 447.66 238.63C457.62 238.63 474.72 248.78 474.72 248.78L475.27 255.33C475.27 255.33 479.75 267.7 479.75 272.36C479.75 277.02 471.8 287.72 471.8 287.72C471.8 287.72 477.73 325.82 480.05 343.89Z" fill="#DE9244"/>
<path d="M409.96 339.4H475.78" stroke="#262424" stroke-width="1.6754" stroke-miterlimit="10" stroke-linecap="round" stroke-linejoin="round"/>
<path d="M474.89 250.72L475.28 255.33C475.28 255.33 479.76 267.7 479.76 272.36C479.76 277.02 471.81 287.72 471.81 287.72C471.81 287.72 472.22 290.38 472.87 294.61" stroke="#262424" stroke-width="1.6754" stroke-miterlimit="10" stroke-linecap="round" stroke-linejoin="round"/>
<path d="M446.91 235.63C452.51 236 455.69 239.71 456.05 242.76C456.42 245.81 454.22 248.61 452.15 249.22C452.15 249.22 450.08 243.43 448.49 243.43C446.9 243.43 445.75 250.13 445.75 250.13C445.75 250.13 438.25 250.13 436.24 243.73C434.85 239.32 440.39 235.2 446.91 235.63Z" fill="white" stroke="#262424" stroke-width="1.6754" stroke-miterlimit="10" stroke-linecap="round" stroke-linejoin="round"/>
<path d="M450.56 239.29C450.56 239.29 450.37 241.21 447.97 242.13C447.97 242.13 444.21 242.31 441.37 239.29L442.04 227.13L444.32 227.61L449.86 228.77L450.45 237.52L450.56 239.29Z" fill="white" stroke="#262424" stroke-width="1.6754" stroke-miterlimit="10" stroke-linecap="round" stroke-linejoin="round"/>
<path d="M450.44 237.51C443.81 236.86 443.25 228.4 443.25 228.4C443.6 228.1 443.96 227.84 444.32 227.61L449.86 228.77L450.44 237.51Z" fill="#262424"/>
<path d="M486.27 295.98C486.27 295.98 486.18 301.12 492.57 302.4C497.76 303.44 501.06 301.05 502.79 298.13C502.9 297.93 503.01 297.75 503.1 297.56C503.2 297.36 503.29 297.16 503.38 296.97C503.47 296.78 503.55 296.57 503.63 296.37C503.83 295.4 503.94 294.68 503.92 294.33C503.75 290.34 495.76 261.76 493.67 254.01C493.39 252.96 492.41 252.26 491.32 252.33L483.45 252.86C482.15 252.95 481.19 254.11 481.35 255.4L486.27 295.98Z" fill="white"/>
<path d="M502.78 298.13C502.89 297.93 503 297.75 503.09 297.56C503.19 297.36 503.28 297.16 503.37 296.97C503.46 296.78 503.54 296.57 503.62 296.37C503.82 295.4 503.93 294.68 503.91 294.33C503.74 290.34 495.75 261.76 493.66 254.01C493.38 252.96 492.4 252.26 491.31 252.33L483.44 252.86C482.14 252.95 481.18 254.11 481.34 255.4L486.26 295.99" fill="white"/>
<path d="M502.78 298.13C502.89 297.93 503 297.75 503.09 297.56C503.19 297.36 503.28 297.16 503.37 296.97C503.46 296.78 503.54 296.57 503.62 296.37C503.82 295.4 503.93 294.68 503.91 294.33C503.74 290.34 495.75 261.76 493.66 254.01C493.38 252.96 492.4 252.26 491.31 252.33L483.44 252.86C482.14 252.95 481.18 254.11 481.34 255.4L486.26 295.99" stroke="#262424" stroke-width="1.6754" stroke-miterlimit="10" stroke-linecap="round" stroke-linejoin="round"/>
<path d="M457.8 220.02C457.8 220.02 460.43 216.12 463.25 217.44C466.07 218.77 465.12 228.17 458.18 226.89L457.8 220.02Z" fill="white" stroke="#262424" stroke-width="1.6754" stroke-miterlimit="10" stroke-linecap="round" stroke-linejoin="round"/>
<path d="M438.24 202.14L436.63 201.38C436.12 201.14 435.51 201.19 435.05 201.52C434.52 201.9 433.84 202.49 433.44 203.25C432.99 204.11 433.08 205.09 433.22 205.71C433.31 206.11 433.57 206.46 433.92 206.68L435.65 207.76C436.49 208.28 437.6 207.91 437.95 206.98L439.03 204.11C439.32 203.35 438.98 202.49 438.24 202.14Z" fill="white"/>
<path d="M459.57 221.57C459.25 227.39 456.66 234.11 449.63 233.92C444.46 233.78 438.73 227.55 438.3 219.69C437.86 211.83 439.23 205.1 448.69 205.57C449.53 205.61 450.95 205.8 451.7 205.97C457.18 207.18 459.28 207.67 459.69 218.46C459.71 219.41 459.63 220.47 459.57 221.57Z" fill="white"/>
<path d="M459.57 221.57C459.25 227.39 456.66 234.11 449.63 233.92C444.46 233.78 438.73 227.55 438.3 219.69C437.86 211.83 439.23 205.1 448.69 205.57C449.53 205.61 450.95 205.8 451.7 205.97C457.18 207.18 459.28 207.67 459.69 218.46C459.71 219.41 459.63 220.47 459.57 221.57Z" stroke="#262424" stroke-width="1.6754" stroke-miterlimit="10" stroke-linecap="round" stroke-linejoin="round"/>
<path d="M438.06 200.88L436.47 200.12C435.96 199.88 435.36 199.93 434.9 200.26C434.37 200.64 433.7 201.22 433.31 201.98C432.86 202.84 432.95 203.8 433.1 204.42C433.19 204.82 433.44 205.16 433.79 205.38L435.5 206.45C436.33 206.97 437.43 206.6 437.78 205.68L438.85 202.84C439.13 202.08 438.79 201.23 438.06 200.88Z" fill="white"/>
<path d="M440.58 219.02C442.92 218.04 443.83 216.24 444.11 214.53C444.21 213.86 444.27 212.95 444.47 212.12C448.44 216.27 455.93 218.8 459.19 219.74C460.24 220.04 461.4 219.69 462.01 218.79C465.82 213.16 461.28 202.39 453.98 202.59C445.69 196.85 436.01 201.02 434.63 208.02C433.1 215.79 438.24 220 440.58 219.02Z" fill="#262424"/>
<path d="M440.71 220.02C440.71 220.02 436.89 216.08 432.87 217.36C428.85 218.64 431.19 228.01 441.11 226.83L440.71 220.02Z" fill="white"/>
<path d="M440.71 220.02C440.71 220.02 436.89 216.08 432.87 217.36C428.85 218.64 431.19 228.01 441.11 226.83" stroke="#262424" stroke-width="1.6754" stroke-miterlimit="10" stroke-linecap="round" stroke-linejoin="round"/>
<path d="M522.35 268.67L503.32 277.13L494.05 281.27L473.78 290.29L437.21 269.69L457.49 260.67L466.75 256.54L485.78 248.07L522.35 268.67Z" fill="white" stroke="#262424" stroke-width="1.6754" stroke-miterlimit="10" stroke-linecap="round" stroke-linejoin="round"/>
<path d="M532.98 312.82L484.41 334.45L473.78 290.29L522.35 268.67L532.98 312.82Z" fill="white" stroke="#262424" stroke-width="1.6754" stroke-miterlimit="10" stroke-linecap="round" stroke-linejoin="round"/>
<path d="M494.05 281.27L498.3 298.92L507.57 294.79L503.33 277.14L494.05 281.27Z" fill="#88C0C2" stroke="#88C0C2" stroke-width="1.6754" stroke-miterlimit="10" stroke-linecap="round" stroke-linejoin="round"/>
<path d="M473.78 290.29L437.21 269.7L447.78 313.85L484.35 334.45L473.78 290.29Z" fill="white" stroke="#262424" stroke-width="1.6754" stroke-miterlimit="10" stroke-linecap="round" stroke-linejoin="round"/>
<path d="M503.32 277.13L494.05 281.27L457.49 260.67L466.75 256.54L503.32 277.13Z" fill="#88C0C2" stroke="#88C0C2" stroke-width="1.6754" stroke-miterlimit="10" stroke-linecap="round" stroke-linejoin="round"/>
<path d="M470.9 245.29C471.96 238.03 479.47 239.37 478.3 246.53C477.13 253.69 468.93 258.72 470.9 245.29Z" fill="white" stroke="#262424" stroke-width="1.6754" stroke-miterlimit="10" stroke-linecap="round" stroke-linejoin="round"/>
<path d="M476.71 245.61C480.41 237.41 489.47 240.99 493.31 244.34C497.16 247.68 494.41 255.9 488.44 256.81C482.47 257.73 472.67 254.54 476.71 245.61Z" fill="white" stroke="#262424" stroke-width="1.6754" stroke-miterlimit="10" stroke-linecap="round" stroke-linejoin="round"/>
<path d="M433.19 293.39C435.75 273.23 437.87 240.7 418.06 250.13C412.11 252.96 409.24 274.03 409.23 292.96C409.22 302.67 409.97 311.79 411.43 317.62C412.35 321.29 415.72 323.94 419.49 323.62C425.48 323.13 429.92 317.37 431.62 308.01C431.62 308.02 432.08 302.13 433.19 293.39Z" fill="white" stroke="#262424" stroke-width="1.6754" stroke-miterlimit="10" stroke-linecap="round" stroke-linejoin="round"/>
<path d="M434.09 292.73L407.24 292.98C407.26 274.05 410.94 253.79 418.07 250.13C437.58 240.1 436.64 272.57 434.09 292.73Z" fill="#DE9244" stroke="#DE9244" stroke-width="1.5648" stroke-miterlimit="10" stroke-linecap="round" stroke-linejoin="round"/>
<path d="M421.98 248.6C436.24 245.03 436.51 269.73 434.6 288.25" stroke="#262424" stroke-width="1.6754" stroke-miterlimit="10" stroke-linecap="round" stroke-linejoin="round"/>
<path d="M408.35 289.84L432 289.49" stroke="#262424" stroke-width="1.6754" stroke-miterlimit="10" stroke-linecap="round" stroke-linejoin="round"/>
<path d="M411.74 311.75C411.73 304.23 417.55 303.17 417.55 303.17L431.82 301.85C431.82 301.85 429.97 297.75 433.81 295.7C437.65 293.65 450.86 293.2 451.08 295.85C451.3 298.5 445.71 299.76 445.71 299.76C445.71 299.76 451.75 299.62 452.07 303.51C452.39 307.4 451.62 313.34 448.78 315.52C445.93 317.71 437.9 317.47 437.9 317.47C435.23 318.67 428.44 321.45 423.46 322.69C423.06 322.79 422.22 322.83 421.08 322.83C416.71 322.16 411.75 319.06 411.74 311.75Z" fill="white"/>
<path d="M422.87 302.68L431.82 301.85C431.82 301.85 429.97 297.75 433.81 295.7C437.65 293.65 450.86 293.2 451.08 295.85C451.3 298.5 445.71 299.76 445.71 299.76C445.71 299.76 451.75 299.62 452.07 303.51C452.39 307.4 451.62 313.34 448.78 315.52C445.93 317.71 437.9 317.47 437.9 317.47C435.23 318.67 428.44 321.45 423.46 322.69C423.15 322.77 422.58 322.81 421.81 322.82" fill="white"/>
<path d="M422.87 302.68L431.82 301.85C431.82 301.85 429.97 297.75 433.81 295.7C437.65 293.65 450.86 293.2 451.08 295.85C451.3 298.5 445.71 299.76 445.71 299.76C445.71 299.76 451.75 299.62 452.07 303.51C452.39 307.4 451.62 313.34 448.78 315.52C445.93 317.71 437.9 317.47 437.9 317.47C435.23 318.67 428.44 321.45 423.46 322.69C423.15 322.77 422.58 322.81 421.81 322.82" stroke="#262424" stroke-width="1.6754" stroke-miterlimit="10" stroke-linecap="round" stroke-linejoin="round"/>
<path d="M445.71 299.77C445.71 299.77 440.58 298.98 435.45 300.64L445.71 299.77Z" fill="white"/>
<path d="M445.71 299.77C445.71 299.77 440.58 298.98 435.45 300.64" stroke="#262424" stroke-width="1.6754" stroke-miterlimit="10" stroke-linecap="round" stroke-linejoin="round"/>
<path d="M594.38 309.44C594.38 309.38 594.37 309.33 594.36 309.27C591.87 287.95 583.48 246.75 574.2 242.98C568.92 240.83 562.48 245.79 562.81 258.49C563.01 266.27 565.57 285.5 567.51 299.23C568.81 308.38 576.23 319.73 585.24 321.83C585.24 321.83 594.92 323.73 594.38 309.44Z" fill="#88C0C2"/>
<path d="M569.73 242.84C565.88 244.16 562.57 249.29 562.81 258.49C563.03 267.09 566.13 289.68 568.11 303.38" stroke="#262424" stroke-width="1.6086" stroke-miterlimit="10" stroke-linecap="round" stroke-linejoin="round"/>
<path d="M586.82 323.22C585.14 324.05 581.89 324.34 577.82 324.27C577.22 324.26 576.61 324.24 575.97 324.21C561.14 323.61 531.73 319.36 531.73 319.36L531.04 307.23L576.63 299.2C586.68 297.23 593.62 304.4 594.33 311.59C594.82 316.31 592.6 321.05 586.82 323.22Z" fill="#88C0C2"/>
<path d="M586.82 323.22C585.14 324.05 581.89 324.34 577.82 324.27C577.55 323.36 577.39 322.41 577.36 321.42C577.17 315.26 581.99 310.13 588.14 309.93C590.4 309.86 592.53 310.47 594.33 311.58C594.82 316.31 592.6 321.05 586.82 323.22Z" fill="white"/>
<path d="M570.13 300.34L531.05 307.23L531.74 319.36C531.74 319.36 561.15 323.62 575.98 324.22C578.38 324.32 580.55 324.31 582.38 324.17" stroke="#262424" stroke-width="1.6086" stroke-miterlimit="10" stroke-linecap="round" stroke-linejoin="round"/>
<path d="M536.78 318.21L535.97 308.3L536.73 317.7" stroke="#262424" stroke-width="1.6086" stroke-miterlimit="10" stroke-linecap="round" stroke-linejoin="round"/>
<path d="M531.7 318.59C531.7 318.59 527.06 320.13 524.77 316.8C524.77 316.8 516.96 316.26 515.18 314.45C513.4 312.64 512.05 307.1 513.77 305.55C513.77 305.55 512 303.22 514.57 301.68C517.14 300.14 526.4 298.92 528.87 300.55C531.34 302.18 531.62 310.06 531.7 318.59Z" fill="white" stroke="#262424" stroke-width="1.6086" stroke-miterlimit="10" stroke-linecap="round" stroke-linejoin="round"/>
<path d="M523.35 304.82L515.2 305.38" stroke="#262424" stroke-width="1.6086" stroke-miterlimit="10" stroke-linecap="round" stroke-linejoin="round"/>
</svg>
